<mxfile host="app.diagrams.net" modified="2023-06-16T09:41:03.292Z" agent="Mozilla/5.0 (Windows NT 10.0; Win64; x64) AppleWebKit/537.36 (KHTML, like Gecko) Chrome/114.0.0.0 Safari/537.36" etag="0pE6R_stoXLiWtvv5WRL" version="21.3.7" type="github">
  <diagram name="Trang-1" id="hx307600LLkeYoheJDm4">
    <mxGraphModel dx="3697" dy="1886" grid="0" gridSize="10" guides="1" tooltips="1" connect="1" arrows="1" fold="1" page="0" pageScale="1" pageWidth="827" pageHeight="1169" math="0" shadow="0">
      <root>
        <mxCell id="0" />
        <mxCell id="1" parent="0" />
        <mxCell id="RiRZdsaJOJRhKzKAUpRm-1" value="" style="rounded=0;whiteSpace=wrap;html=1;" vertex="1" parent="1">
          <mxGeometry x="513" y="471" width="1686" height="874" as="geometry" />
        </mxCell>
        <mxCell id="RiRZdsaJOJRhKzKAUpRm-2" value="" style="rounded=0;whiteSpace=wrap;html=1;dashed=1;" vertex="1" parent="1">
          <mxGeometry x="558" y="563" width="581" height="742" as="geometry" />
        </mxCell>
        <mxCell id="RiRZdsaJOJRhKzKAUpRm-3" value="&lt;font style=&quot;font-size: 25px;&quot;&gt;Hiện tại&lt;/font&gt;" style="text;html=1;strokeColor=none;fillColor=none;align=center;verticalAlign=middle;whiteSpace=wrap;rounded=0;" vertex="1" parent="1">
          <mxGeometry x="779.5" y="512" width="138" height="30" as="geometry" />
        </mxCell>
        <mxCell id="RiRZdsaJOJRhKzKAUpRm-4" value="" style="group" vertex="1" connectable="0" parent="1">
          <mxGeometry x="669" y="590" width="121" height="29" as="geometry" />
        </mxCell>
        <mxCell id="RiRZdsaJOJRhKzKAUpRm-5" value="" style="shape=hexagon;perimeter=hexagonPerimeter2;whiteSpace=wrap;html=1;fixedSize=1;" vertex="1" parent="RiRZdsaJOJRhKzKAUpRm-4">
          <mxGeometry width="121" height="29" as="geometry" />
        </mxCell>
        <mxCell id="RiRZdsaJOJRhKzKAUpRm-6" value="&lt;font style=&quot;font-size: 25px;&quot;&gt;....X....&lt;/font&gt;" style="text;html=1;strokeColor=none;fillColor=none;align=center;verticalAlign=middle;whiteSpace=wrap;rounded=0;" vertex="1" parent="RiRZdsaJOJRhKzKAUpRm-4">
          <mxGeometry x="28" y="4.5" width="66" height="16" as="geometry" />
        </mxCell>
        <mxCell id="RiRZdsaJOJRhKzKAUpRm-7" style="edgeStyle=orthogonalEdgeStyle;rounded=0;orthogonalLoop=1;jettySize=auto;html=1;entryX=0.5;entryY=0;entryDx=0;entryDy=0;" edge="1" parent="1" source="RiRZdsaJOJRhKzKAUpRm-5" target="RiRZdsaJOJRhKzKAUpRm-9">
          <mxGeometry relative="1" as="geometry">
            <mxPoint x="729.5" y="669" as="targetPoint" />
          </mxGeometry>
        </mxCell>
        <mxCell id="RiRZdsaJOJRhKzKAUpRm-8" style="edgeStyle=orthogonalEdgeStyle;rounded=0;orthogonalLoop=1;jettySize=auto;html=1;entryX=0.5;entryY=0;entryDx=0;entryDy=0;" edge="1" parent="1" source="RiRZdsaJOJRhKzKAUpRm-9" target="RiRZdsaJOJRhKzKAUpRm-13">
          <mxGeometry relative="1" as="geometry" />
        </mxCell>
        <mxCell id="RiRZdsaJOJRhKzKAUpRm-9" value="Cơ quan 1" style="swimlane;fontStyle=0;childLayout=stackLayout;horizontal=1;startSize=30;horizontalStack=0;resizeParent=1;resizeParentMax=0;resizeLast=0;collapsible=1;marginBottom=0;whiteSpace=wrap;html=1;" vertex="1" parent="1">
          <mxGeometry x="659.5" y="674" width="140" height="90" as="geometry" />
        </mxCell>
        <mxCell id="RiRZdsaJOJRhKzKAUpRm-10" value="parent là &amp;lt;..x..&amp;gt;" style="text;strokeColor=none;fillColor=none;align=left;verticalAlign=middle;spacingLeft=4;spacingRight=4;overflow=hidden;points=[[0,0.5],[1,0.5]];portConstraint=eastwest;rotatable=0;whiteSpace=wrap;html=1;" vertex="1" parent="RiRZdsaJOJRhKzKAUpRm-9">
          <mxGeometry y="30" width="140" height="30" as="geometry" />
        </mxCell>
        <mxCell id="RiRZdsaJOJRhKzKAUpRm-11" value="ancestor: &amp;lt;..x..&amp;gt;" style="text;strokeColor=none;fillColor=none;align=left;verticalAlign=middle;spacingLeft=4;spacingRight=4;overflow=hidden;points=[[0,0.5],[1,0.5]];portConstraint=eastwest;rotatable=0;whiteSpace=wrap;html=1;" vertex="1" parent="RiRZdsaJOJRhKzKAUpRm-9">
          <mxGeometry y="60" width="140" height="30" as="geometry" />
        </mxCell>
        <mxCell id="RiRZdsaJOJRhKzKAUpRm-12" style="edgeStyle=orthogonalEdgeStyle;rounded=0;orthogonalLoop=1;jettySize=auto;html=1;entryX=0.5;entryY=0;entryDx=0;entryDy=0;" edge="1" parent="1" source="RiRZdsaJOJRhKzKAUpRm-13" target="RiRZdsaJOJRhKzKAUpRm-18">
          <mxGeometry relative="1" as="geometry" />
        </mxCell>
        <mxCell id="RiRZdsaJOJRhKzKAUpRm-13" value="Cơ quan 2" style="swimlane;fontStyle=0;childLayout=stackLayout;horizontal=1;startSize=30;horizontalStack=0;resizeParent=1;resizeParentMax=0;resizeLast=0;collapsible=1;marginBottom=0;whiteSpace=wrap;html=1;" vertex="1" parent="1">
          <mxGeometry x="659.5" y="833" width="140" height="90" as="geometry" />
        </mxCell>
        <mxCell id="RiRZdsaJOJRhKzKAUpRm-14" value="parent là Cơ quan 1" style="text;strokeColor=none;fillColor=none;align=left;verticalAlign=middle;spacingLeft=4;spacingRight=4;overflow=hidden;points=[[0,0.5],[1,0.5]];portConstraint=eastwest;rotatable=0;whiteSpace=wrap;html=1;" vertex="1" parent="RiRZdsaJOJRhKzKAUpRm-13">
          <mxGeometry y="30" width="140" height="30" as="geometry" />
        </mxCell>
        <mxCell id="RiRZdsaJOJRhKzKAUpRm-15" value="ancestor: &amp;lt;..x..&amp;gt; và Cơ quan 1" style="text;strokeColor=none;fillColor=none;align=left;verticalAlign=middle;spacingLeft=4;spacingRight=4;overflow=hidden;points=[[0,0.5],[1,0.5]];portConstraint=eastwest;rotatable=0;whiteSpace=wrap;html=1;" vertex="1" parent="RiRZdsaJOJRhKzKAUpRm-13">
          <mxGeometry y="60" width="140" height="30" as="geometry" />
        </mxCell>
        <mxCell id="RiRZdsaJOJRhKzKAUpRm-16" style="edgeStyle=orthogonalEdgeStyle;rounded=0;orthogonalLoop=1;jettySize=auto;html=1;entryX=0.5;entryY=0;entryDx=0;entryDy=0;" edge="1" parent="1" source="RiRZdsaJOJRhKzKAUpRm-18" target="RiRZdsaJOJRhKzKAUpRm-21">
          <mxGeometry relative="1" as="geometry">
            <Array as="points">
              <mxPoint x="730" y="1115" />
              <mxPoint x="730" y="1115" />
            </Array>
          </mxGeometry>
        </mxCell>
        <mxCell id="RiRZdsaJOJRhKzKAUpRm-17" value="............" style="edgeLabel;html=1;align=center;verticalAlign=middle;resizable=0;points=[];" vertex="1" connectable="0" parent="RiRZdsaJOJRhKzKAUpRm-16">
          <mxGeometry x="-0.1571" y="2" relative="1" as="geometry">
            <mxPoint as="offset" />
          </mxGeometry>
        </mxCell>
        <mxCell id="RiRZdsaJOJRhKzKAUpRm-18" value="Cơ quan 3" style="swimlane;fontStyle=0;childLayout=stackLayout;horizontal=1;startSize=30;horizontalStack=0;resizeParent=1;resizeParentMax=0;resizeLast=0;collapsible=1;marginBottom=0;whiteSpace=wrap;html=1;" vertex="1" parent="1">
          <mxGeometry x="659.5" y="980" width="140" height="90" as="geometry" />
        </mxCell>
        <mxCell id="RiRZdsaJOJRhKzKAUpRm-19" value="parent là Cơ quan 2" style="text;strokeColor=none;fillColor=none;align=left;verticalAlign=middle;spacingLeft=4;spacingRight=4;overflow=hidden;points=[[0,0.5],[1,0.5]];portConstraint=eastwest;rotatable=0;whiteSpace=wrap;html=1;" vertex="1" parent="RiRZdsaJOJRhKzKAUpRm-18">
          <mxGeometry y="30" width="140" height="30" as="geometry" />
        </mxCell>
        <mxCell id="RiRZdsaJOJRhKzKAUpRm-20" value="ancestor: &amp;lt;..x..&amp;gt; ; Cơ quan 1 và Cơ quan 2" style="text;strokeColor=none;fillColor=none;align=left;verticalAlign=middle;spacingLeft=4;spacingRight=4;overflow=hidden;points=[[0,0.5],[1,0.5]];portConstraint=eastwest;rotatable=0;whiteSpace=wrap;html=1;" vertex="1" parent="RiRZdsaJOJRhKzKAUpRm-18">
          <mxGeometry y="60" width="140" height="30" as="geometry" />
        </mxCell>
        <mxCell id="RiRZdsaJOJRhKzKAUpRm-21" value="Cơ quan n" style="swimlane;fontStyle=0;childLayout=stackLayout;horizontal=1;startSize=30;horizontalStack=0;resizeParent=1;resizeParentMax=0;resizeLast=0;collapsible=1;marginBottom=0;whiteSpace=wrap;html=1;" vertex="1" parent="1">
          <mxGeometry x="659.5" y="1169" width="140" height="109" as="geometry" />
        </mxCell>
        <mxCell id="RiRZdsaJOJRhKzKAUpRm-22" value="parent là Cơ quan 3" style="text;strokeColor=none;fillColor=none;align=left;verticalAlign=middle;spacingLeft=4;spacingRight=4;overflow=hidden;points=[[0,0.5],[1,0.5]];portConstraint=eastwest;rotatable=0;whiteSpace=wrap;html=1;" vertex="1" parent="RiRZdsaJOJRhKzKAUpRm-21">
          <mxGeometry y="30" width="140" height="30" as="geometry" />
        </mxCell>
        <mxCell id="RiRZdsaJOJRhKzKAUpRm-23" value="ancestor: &amp;lt;..x..&amp;gt; ; Cơ quan 1 ; Cơ quan 2; Cơ quan 3 ; ..." style="text;strokeColor=none;fillColor=none;align=left;verticalAlign=middle;spacingLeft=4;spacingRight=4;overflow=hidden;points=[[0,0.5],[1,0.5]];portConstraint=eastwest;rotatable=0;whiteSpace=wrap;html=1;" vertex="1" parent="RiRZdsaJOJRhKzKAUpRm-21">
          <mxGeometry y="60" width="140" height="49" as="geometry" />
        </mxCell>
        <mxCell id="RiRZdsaJOJRhKzKAUpRm-24" value="" style="shape=flexArrow;endArrow=classic;html=1;rounded=0;exitX=0.994;exitY=0.181;exitDx=0;exitDy=0;exitPerimeter=0;entryX=0;entryY=0.25;entryDx=0;entryDy=0;" edge="1" parent="1" source="RiRZdsaJOJRhKzKAUpRm-13" target="RiRZdsaJOJRhKzKAUpRm-43">
          <mxGeometry width="50" height="50" relative="1" as="geometry">
            <mxPoint x="1029" y="928" as="sourcePoint" />
            <mxPoint x="1563" y="845" as="targetPoint" />
          </mxGeometry>
        </mxCell>
        <mxCell id="RiRZdsaJOJRhKzKAUpRm-25" value="Cơ quan A" style="swimlane;fontStyle=0;childLayout=stackLayout;horizontal=1;startSize=30;horizontalStack=0;resizeParent=1;resizeParentMax=0;resizeLast=0;collapsible=1;marginBottom=0;whiteSpace=wrap;html=1;" vertex="1" parent="1">
          <mxGeometry x="939.5" y="674" width="140" height="90" as="geometry" />
        </mxCell>
        <mxCell id="RiRZdsaJOJRhKzKAUpRm-26" value="parent là &amp;lt;..y..&amp;gt;" style="text;strokeColor=none;fillColor=none;align=left;verticalAlign=middle;spacingLeft=4;spacingRight=4;overflow=hidden;points=[[0,0.5],[1,0.5]];portConstraint=eastwest;rotatable=0;whiteSpace=wrap;html=1;" vertex="1" parent="RiRZdsaJOJRhKzKAUpRm-25">
          <mxGeometry y="30" width="140" height="30" as="geometry" />
        </mxCell>
        <mxCell id="RiRZdsaJOJRhKzKAUpRm-27" value="ancestor: &amp;lt;..y..&amp;gt;" style="text;strokeColor=none;fillColor=none;align=left;verticalAlign=middle;spacingLeft=4;spacingRight=4;overflow=hidden;points=[[0,0.5],[1,0.5]];portConstraint=eastwest;rotatable=0;whiteSpace=wrap;html=1;" vertex="1" parent="RiRZdsaJOJRhKzKAUpRm-25">
          <mxGeometry y="60" width="140" height="30" as="geometry" />
        </mxCell>
        <mxCell id="RiRZdsaJOJRhKzKAUpRm-28" value="" style="group" vertex="1" connectable="0" parent="1">
          <mxGeometry x="949" y="589" width="121" height="29" as="geometry" />
        </mxCell>
        <mxCell id="RiRZdsaJOJRhKzKAUpRm-29" value="" style="shape=hexagon;perimeter=hexagonPerimeter2;whiteSpace=wrap;html=1;fixedSize=1;" vertex="1" parent="RiRZdsaJOJRhKzKAUpRm-28">
          <mxGeometry width="121" height="29" as="geometry" />
        </mxCell>
        <mxCell id="RiRZdsaJOJRhKzKAUpRm-30" value="&lt;font style=&quot;font-size: 25px;&quot;&gt;....Y....&lt;/font&gt;" style="text;html=1;strokeColor=none;fillColor=none;align=center;verticalAlign=middle;whiteSpace=wrap;rounded=0;" vertex="1" parent="RiRZdsaJOJRhKzKAUpRm-28">
          <mxGeometry x="28" y="4.5" width="66" height="16" as="geometry" />
        </mxCell>
        <mxCell id="RiRZdsaJOJRhKzKAUpRm-31" style="edgeStyle=orthogonalEdgeStyle;rounded=0;orthogonalLoop=1;jettySize=auto;html=1;entryX=0.5;entryY=0;entryDx=0;entryDy=0;" edge="1" parent="1" source="RiRZdsaJOJRhKzKAUpRm-29" target="RiRZdsaJOJRhKzKAUpRm-25">
          <mxGeometry relative="1" as="geometry" />
        </mxCell>
        <mxCell id="RiRZdsaJOJRhKzKAUpRm-32" value="&lt;font style=&quot;font-size: 18px;&quot;&gt;&lt;font color=&quot;#ff0000&quot;&gt;Cơ quan 2&lt;/font&gt; đổi &lt;font color=&quot;#3333ff&quot;&gt;parent &lt;/font&gt;thành &lt;font color=&quot;#ff0000&quot;&gt;Cơ quan A&lt;/font&gt;&lt;/font&gt;" style="text;html=1;strokeColor=none;fillColor=none;align=center;verticalAlign=middle;whiteSpace=wrap;rounded=0;" vertex="1" parent="1">
          <mxGeometry x="1151" y="811" width="363" height="30" as="geometry" />
        </mxCell>
        <mxCell id="RiRZdsaJOJRhKzKAUpRm-33" value="" style="rounded=0;whiteSpace=wrap;html=1;dashed=1;fillColor=none;" vertex="1" parent="1">
          <mxGeometry x="1567" y="558" width="581" height="742" as="geometry" />
        </mxCell>
        <mxCell id="RiRZdsaJOJRhKzKAUpRm-34" value="&lt;span style=&quot;font-size: 25px;&quot;&gt;Sau khi thực hiện kafka&lt;/span&gt;" style="text;html=1;strokeColor=none;fillColor=none;align=center;verticalAlign=middle;whiteSpace=wrap;rounded=0;" vertex="1" parent="1">
          <mxGeometry x="1739" y="507" width="285.5" height="30" as="geometry" />
        </mxCell>
        <mxCell id="RiRZdsaJOJRhKzKAUpRm-35" value="" style="group" vertex="1" connectable="0" parent="1">
          <mxGeometry x="1678" y="585" width="121" height="29" as="geometry" />
        </mxCell>
        <mxCell id="RiRZdsaJOJRhKzKAUpRm-36" value="" style="shape=hexagon;perimeter=hexagonPerimeter2;whiteSpace=wrap;html=1;fixedSize=1;" vertex="1" parent="RiRZdsaJOJRhKzKAUpRm-35">
          <mxGeometry width="121" height="29" as="geometry" />
        </mxCell>
        <mxCell id="RiRZdsaJOJRhKzKAUpRm-37" value="&lt;font style=&quot;font-size: 25px;&quot;&gt;....X....&lt;/font&gt;" style="text;html=1;strokeColor=none;fillColor=none;align=center;verticalAlign=middle;whiteSpace=wrap;rounded=0;" vertex="1" parent="RiRZdsaJOJRhKzKAUpRm-35">
          <mxGeometry x="28" y="4.5" width="66" height="16" as="geometry" />
        </mxCell>
        <mxCell id="RiRZdsaJOJRhKzKAUpRm-38" style="edgeStyle=orthogonalEdgeStyle;rounded=0;orthogonalLoop=1;jettySize=auto;html=1;entryX=0.5;entryY=0;entryDx=0;entryDy=0;" edge="1" parent="1" source="RiRZdsaJOJRhKzKAUpRm-36" target="RiRZdsaJOJRhKzKAUpRm-39">
          <mxGeometry relative="1" as="geometry">
            <mxPoint x="1738.5" y="664" as="targetPoint" />
          </mxGeometry>
        </mxCell>
        <mxCell id="RiRZdsaJOJRhKzKAUpRm-39" value="Cơ quan 1" style="swimlane;fontStyle=0;childLayout=stackLayout;horizontal=1;startSize=30;horizontalStack=0;resizeParent=1;resizeParentMax=0;resizeLast=0;collapsible=1;marginBottom=0;whiteSpace=wrap;html=1;" vertex="1" parent="1">
          <mxGeometry x="1668.5" y="669" width="140" height="90" as="geometry" />
        </mxCell>
        <mxCell id="RiRZdsaJOJRhKzKAUpRm-40" value="parent là &amp;lt;..x..&amp;gt;" style="text;strokeColor=none;fillColor=none;align=left;verticalAlign=middle;spacingLeft=4;spacingRight=4;overflow=hidden;points=[[0,0.5],[1,0.5]];portConstraint=eastwest;rotatable=0;whiteSpace=wrap;html=1;" vertex="1" parent="RiRZdsaJOJRhKzKAUpRm-39">
          <mxGeometry y="30" width="140" height="30" as="geometry" />
        </mxCell>
        <mxCell id="RiRZdsaJOJRhKzKAUpRm-41" value="ancestor: &amp;lt;..x..&amp;gt;" style="text;strokeColor=none;fillColor=none;align=left;verticalAlign=middle;spacingLeft=4;spacingRight=4;overflow=hidden;points=[[0,0.5],[1,0.5]];portConstraint=eastwest;rotatable=0;whiteSpace=wrap;html=1;" vertex="1" parent="RiRZdsaJOJRhKzKAUpRm-39">
          <mxGeometry y="60" width="140" height="30" as="geometry" />
        </mxCell>
        <mxCell id="RiRZdsaJOJRhKzKAUpRm-42" style="edgeStyle=orthogonalEdgeStyle;rounded=0;orthogonalLoop=1;jettySize=auto;html=1;entryX=0.5;entryY=0;entryDx=0;entryDy=0;" edge="1" parent="1" source="RiRZdsaJOJRhKzKAUpRm-43" target="RiRZdsaJOJRhKzKAUpRm-48">
          <mxGeometry relative="1" as="geometry" />
        </mxCell>
        <mxCell id="RiRZdsaJOJRhKzKAUpRm-43" value="Cơ quan 2" style="swimlane;fontStyle=0;childLayout=stackLayout;horizontal=1;startSize=30;horizontalStack=0;resizeParent=1;resizeParentMax=0;resizeLast=0;collapsible=1;marginBottom=0;whiteSpace=wrap;html=1;" vertex="1" parent="1">
          <mxGeometry x="1668.5" y="828" width="140" height="90" as="geometry" />
        </mxCell>
        <mxCell id="RiRZdsaJOJRhKzKAUpRm-44" value="parent là &lt;font color=&quot;#ff0000&quot;&gt;Cơ quan A&lt;/font&gt;" style="text;strokeColor=none;fillColor=none;align=left;verticalAlign=middle;spacingLeft=4;spacingRight=4;overflow=hidden;points=[[0,0.5],[1,0.5]];portConstraint=eastwest;rotatable=0;whiteSpace=wrap;html=1;" vertex="1" parent="RiRZdsaJOJRhKzKAUpRm-43">
          <mxGeometry y="30" width="140" height="30" as="geometry" />
        </mxCell>
        <mxCell id="RiRZdsaJOJRhKzKAUpRm-45" value="ancestor: &lt;font color=&quot;#ff0000&quot;&gt;&amp;lt;..y..&amp;gt; và Cơ quan A&lt;/font&gt;" style="text;strokeColor=none;fillColor=none;align=left;verticalAlign=middle;spacingLeft=4;spacingRight=4;overflow=hidden;points=[[0,0.5],[1,0.5]];portConstraint=eastwest;rotatable=0;whiteSpace=wrap;html=1;" vertex="1" parent="RiRZdsaJOJRhKzKAUpRm-43">
          <mxGeometry y="60" width="140" height="30" as="geometry" />
        </mxCell>
        <mxCell id="RiRZdsaJOJRhKzKAUpRm-46" style="edgeStyle=orthogonalEdgeStyle;rounded=0;orthogonalLoop=1;jettySize=auto;html=1;entryX=0.5;entryY=0;entryDx=0;entryDy=0;" edge="1" parent="1" source="RiRZdsaJOJRhKzKAUpRm-48" target="RiRZdsaJOJRhKzKAUpRm-51">
          <mxGeometry relative="1" as="geometry">
            <Array as="points">
              <mxPoint x="1739" y="1110" />
              <mxPoint x="1739" y="1110" />
            </Array>
          </mxGeometry>
        </mxCell>
        <mxCell id="RiRZdsaJOJRhKzKAUpRm-47" value="............" style="edgeLabel;html=1;align=center;verticalAlign=middle;resizable=0;points=[];" vertex="1" connectable="0" parent="RiRZdsaJOJRhKzKAUpRm-46">
          <mxGeometry x="-0.1571" y="2" relative="1" as="geometry">
            <mxPoint as="offset" />
          </mxGeometry>
        </mxCell>
        <mxCell id="RiRZdsaJOJRhKzKAUpRm-48" value="Cơ quan 3" style="swimlane;fontStyle=0;childLayout=stackLayout;horizontal=1;startSize=30;horizontalStack=0;resizeParent=1;resizeParentMax=0;resizeLast=0;collapsible=1;marginBottom=0;whiteSpace=wrap;html=1;" vertex="1" parent="1">
          <mxGeometry x="1668.5" y="975" width="140" height="90" as="geometry" />
        </mxCell>
        <mxCell id="RiRZdsaJOJRhKzKAUpRm-49" value="parent là &lt;font color=&quot;#ff0000&quot;&gt;Cơ quan 2&lt;/font&gt;" style="text;strokeColor=none;fillColor=none;align=left;verticalAlign=middle;spacingLeft=4;spacingRight=4;overflow=hidden;points=[[0,0.5],[1,0.5]];portConstraint=eastwest;rotatable=0;whiteSpace=wrap;html=1;" vertex="1" parent="RiRZdsaJOJRhKzKAUpRm-48">
          <mxGeometry y="30" width="140" height="30" as="geometry" />
        </mxCell>
        <mxCell id="RiRZdsaJOJRhKzKAUpRm-50" value="ancestor: &lt;font color=&quot;#ff0000&quot;&gt;&amp;lt;..y..&amp;gt; ; Cơ quan A và Cơ quan 2&lt;/font&gt;" style="text;strokeColor=none;fillColor=none;align=left;verticalAlign=middle;spacingLeft=4;spacingRight=4;overflow=hidden;points=[[0,0.5],[1,0.5]];portConstraint=eastwest;rotatable=0;whiteSpace=wrap;html=1;" vertex="1" parent="RiRZdsaJOJRhKzKAUpRm-48">
          <mxGeometry y="60" width="140" height="30" as="geometry" />
        </mxCell>
        <mxCell id="RiRZdsaJOJRhKzKAUpRm-51" value="Cơ quan n" style="swimlane;fontStyle=0;childLayout=stackLayout;horizontal=1;startSize=30;horizontalStack=0;resizeParent=1;resizeParentMax=0;resizeLast=0;collapsible=1;marginBottom=0;whiteSpace=wrap;html=1;" vertex="1" parent="1">
          <mxGeometry x="1668.5" y="1164" width="140" height="109" as="geometry" />
        </mxCell>
        <mxCell id="RiRZdsaJOJRhKzKAUpRm-52" value="parent là &lt;font color=&quot;#ff0000&quot;&gt;Cơ quan 3&lt;/font&gt;" style="text;strokeColor=none;fillColor=none;align=left;verticalAlign=middle;spacingLeft=4;spacingRight=4;overflow=hidden;points=[[0,0.5],[1,0.5]];portConstraint=eastwest;rotatable=0;whiteSpace=wrap;html=1;" vertex="1" parent="RiRZdsaJOJRhKzKAUpRm-51">
          <mxGeometry y="30" width="140" height="30" as="geometry" />
        </mxCell>
        <mxCell id="RiRZdsaJOJRhKzKAUpRm-53" value="ancestor: &lt;font color=&quot;#ff0000&quot;&gt;&amp;lt;..y..&amp;gt; ; Cơ quan A ; Cơ quan 2; Cơ quan 3 ; ...&lt;/font&gt;" style="text;strokeColor=none;fillColor=none;align=left;verticalAlign=middle;spacingLeft=4;spacingRight=4;overflow=hidden;points=[[0,0.5],[1,0.5]];portConstraint=eastwest;rotatable=0;whiteSpace=wrap;html=1;" vertex="1" parent="RiRZdsaJOJRhKzKAUpRm-51">
          <mxGeometry y="60" width="140" height="49" as="geometry" />
        </mxCell>
        <mxCell id="RiRZdsaJOJRhKzKAUpRm-54" value="Cơ quan A" style="swimlane;fontStyle=0;childLayout=stackLayout;horizontal=1;startSize=30;horizontalStack=0;resizeParent=1;resizeParentMax=0;resizeLast=0;collapsible=1;marginBottom=0;whiteSpace=wrap;html=1;" vertex="1" parent="1">
          <mxGeometry x="1948.5" y="669" width="140" height="90" as="geometry" />
        </mxCell>
        <mxCell id="RiRZdsaJOJRhKzKAUpRm-55" value="parent là &lt;font color=&quot;#ff0000&quot;&gt;&amp;lt;..y..&amp;gt;&lt;/font&gt;" style="text;strokeColor=none;fillColor=none;align=left;verticalAlign=middle;spacingLeft=4;spacingRight=4;overflow=hidden;points=[[0,0.5],[1,0.5]];portConstraint=eastwest;rotatable=0;whiteSpace=wrap;html=1;" vertex="1" parent="RiRZdsaJOJRhKzKAUpRm-54">
          <mxGeometry y="30" width="140" height="30" as="geometry" />
        </mxCell>
        <mxCell id="RiRZdsaJOJRhKzKAUpRm-56" value="ancestor: &lt;font color=&quot;#ff0000&quot;&gt;&amp;lt;..y..&amp;gt;&lt;/font&gt;" style="text;strokeColor=none;fillColor=none;align=left;verticalAlign=middle;spacingLeft=4;spacingRight=4;overflow=hidden;points=[[0,0.5],[1,0.5]];portConstraint=eastwest;rotatable=0;whiteSpace=wrap;html=1;" vertex="1" parent="RiRZdsaJOJRhKzKAUpRm-54">
          <mxGeometry y="60" width="140" height="30" as="geometry" />
        </mxCell>
        <mxCell id="RiRZdsaJOJRhKzKAUpRm-57" value="" style="group" vertex="1" connectable="0" parent="1">
          <mxGeometry x="1958" y="584" width="121" height="29" as="geometry" />
        </mxCell>
        <mxCell id="RiRZdsaJOJRhKzKAUpRm-58" value="" style="shape=hexagon;perimeter=hexagonPerimeter2;whiteSpace=wrap;html=1;fixedSize=1;" vertex="1" parent="RiRZdsaJOJRhKzKAUpRm-57">
          <mxGeometry width="121" height="29" as="geometry" />
        </mxCell>
        <mxCell id="RiRZdsaJOJRhKzKAUpRm-59" value="&lt;font style=&quot;font-size: 25px;&quot;&gt;....Y....&lt;/font&gt;" style="text;html=1;strokeColor=none;fillColor=none;align=center;verticalAlign=middle;whiteSpace=wrap;rounded=0;" vertex="1" parent="RiRZdsaJOJRhKzKAUpRm-57">
          <mxGeometry x="28" y="4.5" width="66" height="16" as="geometry" />
        </mxCell>
        <mxCell id="RiRZdsaJOJRhKzKAUpRm-60" style="edgeStyle=orthogonalEdgeStyle;rounded=0;orthogonalLoop=1;jettySize=auto;html=1;entryX=0.5;entryY=0;entryDx=0;entryDy=0;" edge="1" parent="1" source="RiRZdsaJOJRhKzKAUpRm-58" target="RiRZdsaJOJRhKzKAUpRm-54">
          <mxGeometry relative="1" as="geometry" />
        </mxCell>
        <mxCell id="RiRZdsaJOJRhKzKAUpRm-61" value="" style="endArrow=classic;html=1;rounded=0;exitX=0.494;exitY=1.132;exitDx=0;exitDy=0;exitPerimeter=0;entryX=0.5;entryY=0;entryDx=0;entryDy=0;" edge="1" parent="1" source="RiRZdsaJOJRhKzKAUpRm-56" target="RiRZdsaJOJRhKzKAUpRm-43">
          <mxGeometry width="50" height="50" relative="1" as="geometry">
            <mxPoint x="1484" y="889" as="sourcePoint" />
            <mxPoint x="1534" y="839" as="targetPoint" />
          </mxGeometry>
        </mxCell>
      </root>
    </mxGraphModel>
  </diagram>
</mxfile>
